<svg width="20" height="19" viewBox="0 0 20 19" fill="none" xmlns="http://www.w3.org/2000/svg">
<path d="M4.19205 2.114C4.19178 2.65041 3.97844 3.16475 3.59895 3.54386C3.21946 3.92297 2.70491 4.1358 2.1685 4.13553C1.63209 4.13526 1.11776 3.92192 0.738645 3.54243C0.359536 3.16294 0.146705 2.64839 0.146973 2.11198C0.147241 1.57557 0.360586 1.06124 0.740076 0.682127C1.11956 0.303017 1.63411 0.0901861 2.17052 0.0904544C2.70693 0.0907226 3.22127 0.304068 3.60038 0.683557C3.97949 1.06305 4.19232 1.57759 4.19205 2.114ZM4.25273 5.63322H0.207649V18.2943H4.25273V5.63322ZM10.6439 5.63322H6.61909V18.2943H10.6035V11.6503C10.6035 7.94903 15.4272 7.60519 15.4272 11.6503V18.2943H19.4218V10.2749C19.4218 4.03541 12.2822 4.26801 10.6035 7.33215L10.6439 5.63322Z" fill="#D9F0DF"/>
</svg>
