<svg width="20" height="19" viewBox="0 0 20 19" fill="none" xmlns="http://www.w3.org/2000/svg">
<path d="M4.192 2.114C4.19174 2.65041 3.97839 3.16475 3.5989 3.54386C3.21941 3.92297 2.70486 4.1358 2.16845 4.13553C1.63204 4.13526 1.11771 3.92192 0.7386 3.54243C0.35949 3.16294 0.146659 2.64839 0.146927 2.11198C0.147195 1.57557 0.360541 1.06124 0.74003 0.682127C1.11952 0.303017 1.63407 0.0901861 2.17048 0.0904544C2.70689 0.0907226 3.22122 0.304068 3.60033 0.683557C3.97944 1.06305 4.19227 1.57759 4.192 2.114ZM4.25268 5.63322H0.207603V18.2943H4.25268V5.63322ZM10.6439 5.63322H6.61905V18.2943H10.6034V11.6503C10.6034 7.94903 15.4272 7.60519 15.4272 11.6503V18.2943H19.4217V10.2749C19.4217 4.03541 12.2822 4.26801 10.6034 7.33215L10.6439 5.63322Z" fill="white"/>
</svg>
