<svg width="48" height="48" viewBox="0 0 48 48" fill="none" xmlns="http://www.w3.org/2000/svg">
<path d="M21.7575 8.80952C15.852 12.5895 12.9 17.145 12.9 22.47C12.9 24.1275 13.1895 24.9555 13.7655 24.9555L14.3595 24.795C14.8275 24.615 15.204 24.525 15.4935 24.525C17.184 24.525 18.5985 25.14 19.731 26.37C20.865 27.6 21.432 29.115 21.432 30.924C21.432 32.6595 20.817 34.134 19.5945 35.3445C18.3705 36.555 16.8945 37.1595 15.1665 37.1595C12.7545 37.1595 10.764 36.1695 9.19653 34.185C7.63203 32.205 6.85052 29.715 6.85052 26.7195C6.85052 23.3295 7.51352 20.229 8.84552 17.415C10.1805 14.6025 12.2115 12.06 14.9475 9.78752C17.6835 7.51652 19.4295 6.37952 20.1855 6.37952C20.6895 6.37952 21.1035 6.62252 21.4275 7.10852C21.7515 7.59302 21.9135 8.01602 21.9135 8.37602L21.753 8.80802L21.7575 8.80952ZM41.1975 8.80952C35.292 12.5895 32.3415 17.1435 32.3415 22.4715C32.3415 24.129 32.631 24.957 33.207 24.957L33.801 24.7965C34.269 24.6165 34.6455 24.5265 34.935 24.5265C36.5895 24.5265 37.995 25.1415 39.1455 26.3715C40.3005 27.6015 40.8735 29.1165 40.8735 30.9255C40.8735 32.661 40.2585 34.1355 39.036 35.346C37.812 36.5565 36.336 37.161 34.608 37.161C32.196 37.161 30.2055 36.171 28.638 34.1865C27.0735 32.2065 26.292 29.7165 26.292 26.721C26.292 23.295 26.964 20.166 28.317 17.337C29.667 14.5065 31.6995 11.9715 34.4175 9.73652C37.14 7.50002 38.8755 6.38102 39.63 6.38102C40.1355 6.38102 40.5495 6.62402 40.875 7.11002C41.1975 7.59602 41.3595 8.01902 41.3595 8.37902L41.1975 8.80952Z" fill="#A5D0FE"/>
</svg>
