<svg width="21" height="18" viewBox="0 0 21 18" fill="none" xmlns="http://www.w3.org/2000/svg">
<path d="M20.9347 2.77876C20.1603 3.12182 19.3389 3.347 18.4979 3.44682C19.3739 2.92175 20.0466 2.09027 20.3633 1.09957C19.5305 1.59378 18.6194 1.94198 17.6692 2.12912C16.8952 1.30459 15.7927 0.789291 14.5723 0.789291C12.2292 0.789291 10.3294 2.68894 10.3294 5.03191C10.3294 5.36448 10.367 5.68825 10.4393 5.99885C6.91321 5.82186 3.78699 4.13281 1.69436 1.56592C1.32923 2.19254 1.12001 2.92142 1.12001 3.69886C1.12001 5.17085 1.86909 6.4694 3.00745 7.23028C2.3337 7.20918 1.67477 7.0272 1.08567 6.69955C1.08543 6.71732 1.08543 6.73509 1.08543 6.75295C1.08543 8.80858 2.54789 10.5234 4.48873 10.9132C3.86396 11.0831 3.20862 11.1079 2.57277 10.9859C3.11263 12.6714 4.67954 13.898 6.53605 13.9324C5.08401 15.0702 3.25456 15.7485 1.26687 15.7485C0.924354 15.7485 0.58669 15.7284 0.254761 15.6893C2.13235 16.8931 4.36247 17.5954 6.75844 17.5954C14.5624 17.5954 18.8299 11.1305 18.8299 5.52394C18.8299 5.33992 18.8258 5.15696 18.8176 4.97504C19.6482 4.37458 20.3651 3.63085 20.9347 2.77876Z" fill="#D9F0DF"/>
</svg>
