<svg width="21" height="18" viewBox="0 0 21 18" fill="none" xmlns="http://www.w3.org/2000/svg">
<path d="M20.9346 2.77876C20.1602 3.12182 19.3389 3.347 18.4978 3.44682C19.3739 2.92175 20.0465 2.09027 20.3633 1.09957C19.5305 1.59378 18.6193 1.94198 17.6691 2.12912C16.8952 1.30459 15.7926 0.789291 14.5722 0.789291C12.2291 0.789291 10.3294 2.68894 10.3294 5.03191C10.3294 5.36448 10.3669 5.68825 10.4392 5.99885C6.91315 5.82186 3.78693 4.13281 1.6943 1.56592C1.32917 2.19254 1.11994 2.92142 1.11994 3.69886C1.11994 5.17085 1.86903 6.4694 3.00739 7.23028C2.33364 7.20918 1.67471 7.0272 1.08561 6.69955C1.08537 6.71732 1.08537 6.73509 1.08537 6.75295C1.08537 8.80858 2.54783 10.5234 4.48867 10.9132C3.8639 11.0831 3.20856 11.1079 2.57271 10.9859C3.11257 12.6714 4.67948 13.898 6.53599 13.9324C5.08395 15.0702 3.2545 15.7485 1.2668 15.7485C0.924293 15.7485 0.586629 15.7284 0.2547 15.6893C2.13229 16.8931 4.36241 17.5954 6.75838 17.5954C14.5624 17.5954 18.8298 11.1305 18.8298 5.52394C18.8298 5.33992 18.8258 5.15696 18.8175 4.97504C19.6481 4.37458 20.3651 3.63085 20.9346 2.77876Z" fill="white"/>
</svg>
