<svg width="18" height="18" viewBox="0 0 18 18" fill="none" xmlns="http://www.w3.org/2000/svg">
<path d="M9 6.3C8.28392 6.3 7.59716 6.58446 7.09081 7.09081C6.58446 7.59716 6.3 8.28392 6.3 9C6.3 9.71608 6.58446 10.4028 7.09081 10.9092C7.59716 11.4155 8.28392 11.7 9 11.7C9.71608 11.7 10.4028 11.4155 10.9092 10.9092C11.4155 10.4028 11.7 9.71608 11.7 9C11.7 8.28392 11.4155 7.59716 10.9092 7.09081C10.4028 6.58446 9.71608 6.3 9 6.3ZM9 4.5C10.1935 4.5 11.3381 4.97411 12.182 5.81802C13.0259 6.66193 13.5 7.80653 13.5 9C13.5 10.1935 13.0259 11.3381 12.182 12.182C11.3381 13.0259 10.1935 13.5 9 13.5C7.80653 13.5 6.66193 13.0259 5.81802 12.182C4.97411 11.3381 4.5 10.1935 4.5 9C4.5 7.80653 4.97411 6.66193 5.81802 5.81802C6.66193 4.97411 7.80653 4.5 9 4.5ZM14.85 4.275C14.85 4.57337 14.7315 4.85952 14.5205 5.0705C14.3095 5.28147 14.0234 5.4 13.725 5.4C13.4266 5.4 13.1405 5.28147 12.9295 5.0705C12.7185 4.85952 12.6 4.57337 12.6 4.275C12.6 3.97663 12.7185 3.69048 12.9295 3.4795C13.1405 3.26853 13.4266 3.15 13.725 3.15C14.0234 3.15 14.3095 3.26853 14.5205 3.4795C14.7315 3.69048 14.85 3.97663 14.85 4.275ZM9 1.8C6.7734 1.8 6.4098 1.8063 5.3739 1.8522C4.6683 1.8855 4.1949 1.98 3.7557 2.151C3.38815 2.28594 3.05587 2.50224 2.7837 2.7837C2.50201 3.05586 2.28542 3.38813 2.1501 3.7557C1.9791 4.1967 1.8846 4.6692 1.8522 5.3739C1.8054 6.3675 1.7991 6.7149 1.7991 9C1.7991 11.2275 1.8054 11.5902 1.8513 12.6261C1.8846 13.3308 1.9791 13.8051 2.1492 14.2434C2.3022 14.6349 2.4822 14.9166 2.781 15.2154C3.0843 15.5178 3.366 15.6987 3.753 15.8481C4.1976 16.02 4.671 16.1154 5.373 16.1478C6.3666 16.1946 6.714 16.2 8.9991 16.2C11.2266 16.2 11.5893 16.1937 12.6252 16.1478C13.329 16.1145 13.8024 16.02 14.2425 15.8499C14.6097 15.7143 14.9419 15.4981 15.2145 15.2172C15.5178 14.9148 15.6987 14.6331 15.8481 14.2452C16.0191 13.8024 16.1145 13.329 16.1469 12.6252C16.1937 11.6325 16.1991 11.2842 16.1991 9C16.1991 6.7734 16.1928 6.4098 16.1469 5.3739C16.1136 4.6701 16.0182 4.1949 15.8481 3.7557C15.7124 3.38852 15.4962 3.05638 15.2154 2.7837C14.9434 2.50186 14.6111 2.28525 14.2434 2.1501C13.8024 1.9791 13.329 1.8846 12.6252 1.8522C11.6325 1.8054 11.286 1.8 9 1.8ZM9 0C11.4453 0 11.7504 0.00899995 12.7107 0.0539999C13.6683 0.0989999 14.3217 0.2493 14.895 0.4725C15.489 0.7011 15.9894 1.0107 16.4898 1.5102C16.9474 1.96011 17.3016 2.50433 17.5275 3.105C17.7498 3.6783 17.901 4.3317 17.946 5.2902C17.9883 6.2496 18 6.5547 18 9C18 11.4453 17.991 11.7504 17.946 12.7098C17.901 13.6683 17.7498 14.3208 17.5275 14.895C17.3022 15.496 16.948 16.0403 16.4898 16.4898C16.0398 16.9473 15.4956 17.3014 14.895 17.5275C14.3217 17.7498 13.6683 17.901 12.7107 17.946C11.7504 17.9883 11.4453 18 9 18C6.5547 18 6.2496 17.991 5.2893 17.946C4.3317 17.901 3.6792 17.7498 3.105 17.5275C2.50409 17.302 1.95977 16.9478 1.5102 16.4898C1.05249 16.0399 0.698364 15.4957 0.4725 14.895C0.2493 14.3217 0.0990002 13.6683 0.0540002 12.7098C0.0108002 11.7504 0 11.4453 0 9C0 6.5547 0.00900016 6.2496 0.0540002 5.2902C0.0990002 4.3308 0.2493 3.6792 0.4725 3.105C0.697713 2.50396 1.05192 1.95959 1.5102 1.5102C1.9599 1.05231 2.50419 0.698156 3.105 0.4725C3.6783 0.2493 4.3308 0.0989999 5.2893 0.0539999C6.2496 0.0116999 6.5547 0 9 0Z" fill="#D9F0DF"/>
</svg>
